<?xml version="1.0" standalone="no"?>
<!DOCTYPE svg PUBLIC "-//W3C//DTD SVG 20010904//EN"
 "http://www.w3.org/TR/2001/REC-SVG-20010904/DTD/svg10.dtd">
<svg version="1.0" xmlns="http://www.w3.org/2000/svg"
 width="834.000000pt" height="834.000000pt" viewBox="0 0 834.000000 834.000000"
 preserveAspectRatio="xMidYMid meet">
<metadata>
Created by potrace 1.11, written by Peter Selinger 2001-2013
</metadata>
<g transform="translate(0.000000,834.000000) scale(0.100000,-0.100000)"
fill="#000000" stroke="none">
<path d="M772 6088 c-56 -12 -126 -78 -141 -133 -15 -56 -14 -84 8 -152 10
-32 323 -782 696 -1668 373 -885 680 -1625 683 -1644 3 -21 0 -36 -9 -42 -8
-5 -453 -9 -989 -9 -536 0 -985 -3 -998 -6 l-22 -6 0 -234 0 -234 4170 0 4170
0 0 55 0 55 -4165 0 -4165 0 0 130 0 130 1030 0 c806 0 1035 -3 1051 -12 12
-7 36 -36 54 -64 51 -79 96 -109 164 -108 80 0 126 25 169 93 62 100 -39 91
940 91 570 0 870 -3 882 -10 11 -6 38 -37 60 -69 50 -74 86 -100 149 -108 66
-8 130 23 168 80 16 22 42 55 60 74 l31 33 626 0 625 0 16 -22 c8 -13 30 -45
48 -73 78 -122 235 -125 307 -6 16 25 38 58 50 74 l22 27 939 0 939 0 0 55 0
55 -925 0 c-912 0 -925 0 -945 20 -20 20 -20 33 -20 787 0 744 1 768 20 807
11 23 295 417 632 876 337 459 619 848 626 865 7 16 16 51 19 77 16 134 -118
253 -246 219 -93 -25 -88 -19 -753 -931 -235 -322 -441 -604 -458 -627 -39
-54 -69 -57 -104 -10 -14 17 -82 111 -151 206 -112 156 -146 213 -133 226 8 9
29 -16 141 -167 103 -140 120 -158 156 -169 48 -14 85 -2 124 39 58 62 845
1157 857 1192 16 49 7 85 -27 107 -25 16 -70 19 -478 23 -247 4 -451 7 -452 8
-27 29 -106 88 -130 98 -69 29 -145 14 -203 -40 -69 -64 -55 -61 -311 -66
-221 -5 -239 -6 -266 -26 -22 -16 -29 -31 -31 -64 -4 -48 15 -84 111 -214 29
-39 75 -100 101 -136 49 -66 71 -108 61 -118 -10 -10 -45 31 -147 172 -171
236 -315 421 -352 454 -134 117 -353 3 -333 -173 2 -24 14 -63 26 -87 12 -23
146 -212 297 -418 152 -206 284 -392 295 -412 10 -21 19 -52 19 -69 0 -20
-147 -382 -376 -928 -420 -999 -427 -1015 -444 -1026 -7 -4 -20 0 -30 11 -10
11 -203 458 -428 994 -226 537 -421 1001 -435 1031 -49 111 -127 170 -222 170
-130 0 -173 -50 -304 -359 -55 -130 -250 -591 -433 -1023 -183 -432 -340 -796
-348 -808 -23 -34 -44 -18 -78 57 -17 37 -297 702 -622 1477 -326 776 -605
1435 -620 1466 -34 66 -95 124 -141 134 -19 3 -41 8 -49 10 -8 1 -34 -2 -58
-7z m4222 -42 c26 -11 88 -89 304 -386 245 -339 298 -420 270 -420 -5 0 -6 -5
-2 -11 4 -7 1 -10 -7 -7 -8 2 -138 174 -289 382 -152 207 -282 381 -290 386
-32 21 -88 11 -125 -21 -30 -27 -35 -37 -35 -74 0 -41 12 -60 167 -272 91
-125 233 -320 315 -432 82 -112 148 -211 146 -220 -10 -50 -43 -11 -346 403
-171 234 -318 438 -326 455 -9 16 -16 50 -16 75 0 39 6 52 38 87 59 66 125 85
196 55z m2640 -16 c57 -37 80 -83 74 -151 -3 -26 -15 -61 -28 -80 -13 -19
-307 -419 -652 -890 l-628 -857 0 -877 c0 -866 0 -878 -21 -914 -62 -111 -229
-110 -283 2 -14 32 -16 119 -16 905 l0 870 -153 209 c-230 314 -243 334 -239
366 2 15 7 27 11 27 4 0 102 -130 219 -290 l212 -289 0 -858 c0 -571 4 -871
11 -896 23 -83 126 -102 181 -33 16 20 18 82 18 904 l0 884 655 891 c626 852
655 894 655 935 0 24 -5 52 -10 63 -23 42 -115 64 -151 36 -8 -7 -291 -390
-629 -852 -337 -462 -616 -844 -620 -848 -6 -7 -263 339 -419 561 -23 32 -23
82 -1 82 5 0 100 -125 211 -278 l202 -279 136 186 c990 1357 1071 1466 1109
1483 56 26 101 23 156 -12z m-6764 -45 c16 -9 36 -28 44 -43 8 -15 323 -763
701 -1662 378 -899 690 -1641 694 -1648 9 -16 -53 -158 506 1163 263 622 487
1150 498 1174 52 112 174 107 228 -10 14 -30 241 -568 505 -1196 263 -628 482
-1139 486 -1135 3 4 315 742 693 1641 378 899 695 1652 706 1673 22 43 45 58
89 58 63 0 110 -47 110 -108 0 -15 -341 -837 -757 -1826 -685 -1628 -760
-1801 -788 -1817 -41 -26 -88 -24 -119 4 -19 16 -164 350 -525 1209 -274 652
-504 1194 -509 1204 -9 16 -12 13 -26 -21 -9 -22 -240 -568 -514 -1214 -491
-1160 -497 -1174 -531 -1188 -47 -20 -94 -9 -125 28 -14 17 -26 35 -26 40 0 5
-335 806 -745 1780 -410 974 -745 1784 -745 1800 0 40 17 73 48 92 34 21 65
21 102 2z m4877 -172 c-9 -56 -64 -161 -88 -168 -26 -8 -47 10 -105 91 -24 35
-44 74 -44 88 l0 26 121 0 122 0 -6 -37z m1208 7 c0 -28 -626 -893 -672 -929
-32 -26 -60 -26 -96 -3 -30 20 -172 208 -188 248 -15 42 -10 86 20 175 34 100
195 484 217 517 l15 22 352 -2 352 -3 0 -25z m-1234 -1377 c51 -55 270 -362
289 -404 19 -43 20 -68 20 -801 0 -745 0 -758 -20 -778 -20 -20 -33 -20 -589
-20 -510 0 -571 2 -586 16 -10 10 -13 24 -9 38 9 31 793 1894 816 1939 22 44
45 47 79 10z m-2273 -85 c5 -7 39 -83 75 -168 35 -85 209 -499 387 -920 177
-420 323 -775 323 -788 0 -14 -7 -28 -14 -33 -23 -14 -1583 -11 -1597 3 -25
25 -59 -59 453 1143 117 275 234 552 260 615 25 63 53 125 61 138 16 25 36 28
52 10z"/>
<path d="M3372 4114 c-32 -22 -42 -45 -235 -525 -96 -239 -218 -540 -270 -669
-113 -279 -122 -309 -107 -354 20 -63 3 -61 661 -61 591 0 598 0 626 21 38 28
42 86 12 168 -43 121 -541 1342 -561 1377 -31 56 -83 74 -126 43z m75 -201 c9
-21 129 -317 268 -658 168 -412 248 -622 241 -627 -13 -9 -1047 -11 -1070 -2
-9 3 -12 12 -9 22 23 61 506 1250 519 1273 19 39 32 37 51 -8z"/>
</g>
</svg>
